<svg width="331" height="244" viewBox="0 0 331 244" fill="none" xmlns="http://www.w3.org/2000/svg">
<g clip-path="url(#clip0_406_45)">
<path d="M189.896 165.458C189.896 165.458 145.939 160.192 130.554 151.855C115.169 143.518 0.879211 139.569 0.879211 165.458C0.879211 191.346 132.312 202.754 132.312 202.754L201.325 198.805L189.896 165.458Z" fill="#FBBEBE"/>
<path opacity="0.1" d="M189.896 165.458C189.896 165.458 145.939 160.192 130.554 151.855C115.169 143.518 0.879211 139.569 0.879211 165.458C0.879211 191.346 132.312 202.754 132.312 202.754L201.325 198.805L189.896 165.458Z" fill="black"/>
<path d="M177.149 160.631L186.38 187.397L331 189.152V149.661C331 149.661 275.614 136.937 231.656 164.141C231.656 164.141 179.786 157.998 177.149 160.631Z" fill="#FFDE99"/>
<path opacity="0.1" d="M177.149 160.588L186.38 187.354L331 189.109V149.618C331 149.618 275.614 136.893 231.656 164.098C231.656 164.098 179.786 157.955 177.149 160.588Z" fill="black"/>
<path d="M11.8038 149.442C11.8038 150.938 15.1634 152.048 15.4938 153.49C15.8214 154.921 13.8253 157.097 14.4569 158.464C15.1098 159.861 15.8812 161.2 16.7626 162.466C17.59 163.649 20.1461 163.476 21.1942 164.585C22.2203 165.592 23.3073 166.536 24.449 167.41C25.5612 168.334 27.0678 168.527 28.3325 169.377C29.5349 170.185 29.3894 173.149 30.7195 173.885C31.9905 174.588 33.9361 174.023 35.3148 174.655C36.6381 175.262 37.336 177.456 38.7508 177.992C40.1152 178.51 41.804 178.287 43.2465 178.735C44.6426 179.169 46.2046 179.099 47.6675 179.464C49.0881 179.819 50.1731 181.944 51.6508 182.231C53.0907 182.51 54.778 181.765 56.2668 181.977C57.7207 182.183 59.4115 180.347 60.9071 180.486C62.371 180.622 63.7505 181.472 65.2497 181.541C66.7197 181.608 68.173 182.254 69.6726 182.254C71.1719 182.254 72.7192 183.658 74.1889 183.591C75.6881 183.522 77.0453 181.394 78.5092 181.258C80.0049 181.119 81.789 183.342 83.243 183.136C84.7318 182.924 85.9109 180.748 87.3507 180.469C88.8289 180.182 90.738 181.737 92.1589 181.383C93.622 181.017 94.4904 178.486 95.8867 178.052C97.3291 177.604 99.1171 178.211 100.482 177.693C101.897 177.157 103.62 177.243 104.944 176.636C106.322 176.004 107.312 174.508 108.583 173.805C109.913 173.069 110.527 171.244 111.729 170.436C112.994 169.586 114.921 169.695 116.033 168.771C117.207 167.796 119.407 167.746 120.398 166.697C121.446 165.588 121.87 163.725 122.697 162.542C123.569 161.297 121.858 158.663 122.467 157.346C123.098 155.98 125.738 155.425 126.065 153.994C126.403 152.5 126.577 150.974 126.582 149.442C126.582 147.947 124.325 146.804 123.995 145.361C123.667 143.93 125.328 141.875 124.697 140.509C124.088 139.192 124.166 137.168 123.294 135.922C122.467 134.739 120.402 134.276 119.354 133.167C118.363 132.118 116.589 131.825 115.415 130.851C114.303 129.928 114.445 127.143 113.18 126.293C111.978 125.485 110.299 125.117 108.969 124.381C107.698 123.678 105.899 123.796 104.52 123.164C103.197 122.557 101.124 123.753 99.7096 123.216C98.3452 122.699 97.2385 121.568 95.796 121.119C94.3999 120.686 93.7439 117.377 92.281 117.012C90.8604 116.657 89.1125 117.246 87.6347 116.96C86.1949 116.68 84.2575 119.291 82.7688 119.079C81.3149 118.873 80.2275 115.388 78.7319 115.249C77.268 115.113 75.6174 116.918 74.1182 116.849C72.6482 116.782 71.1722 117.839 69.6726 117.839C68.1733 117.839 66.6794 116.388 65.2096 116.455C63.7105 116.524 62.3886 118.442 60.9248 118.578C59.429 118.717 57.5929 115.8 56.1388 116.006C54.6501 116.218 53.4997 118.473 52.06 118.752C50.5818 119.039 48.7304 117.638 47.3095 117.993C45.8464 118.358 44.9661 120.755 43.5699 121.189C42.1274 121.637 41.2387 123.328 39.8743 123.846C38.4593 124.382 35.8309 121.871 34.5073 122.478C33.1286 123.11 31.9378 124.204 30.6668 124.907C29.3367 125.643 27.2222 125.273 26.0198 126.081C24.7551 126.931 24.4441 129.213 23.3319 130.136C22.1577 131.111 20.221 131.405 19.23 132.453C18.182 133.563 18.0364 135.55 17.209 136.733C16.3376 137.979 16.3648 139.705 15.7564 141.021C15.1251 142.388 13.4396 143.421 13.1121 144.852C12.7819 146.294 11.8038 147.947 11.8038 149.442Z" fill="#3F3D56"/>
<path d="M170.116 176.866C170.116 176.866 120.444 151.416 88.3547 161.07C56.2657 170.723 11.429 154.049 6.15411 159.753C0.879211 165.458 -6.59357 226.887 56.7052 230.398C120.004 233.908 174.072 219.867 174.072 219.867L170.116 176.866Z" fill="#FBBEBE"/>
<path d="M181.813 174.156C181.813 174.156 162.203 172.917 163.082 179.937C163.961 186.958 164.841 241.367 170.116 242.684C175.39 244 217.15 244 234.293 244H331V159.879C331 159.879 262.426 155.804 228.139 172.917C228.139 172.917 186.917 172.323 181.813 174.156Z" fill="#FFDE99"/>
<path d="M89.9456 42.5793C91.8194 42.685 93.6266 43.3096 95.1647 44.3831C96.7028 45.4565 97.9109 46.9365 98.6536 48.6569C100.831 53.9108 98.0274 60.0824 93.8187 63.9136C89.6099 67.7448 84.2036 69.9347 79.2914 72.8131C72.6936 76.6794 66.7649 82.0464 63.4637 88.9358C60.1624 95.8251 59.8113 104.359 63.6918 110.941C67.2935 117.05 73.8427 120.706 80.0889 124.078" stroke="#3F3D56" stroke-miterlimit="10"/>
<path d="M72.3625 10.5481C74.2363 10.6537 76.0435 11.2783 77.5816 12.3518C79.1197 13.4253 80.3278 14.9052 81.0704 16.6257C83.2479 21.8796 80.4443 28.0511 76.2355 31.8823C72.0268 35.7135 66.6205 37.9034 61.7083 40.7819C55.1105 44.6481 49.1819 50.0151 45.8806 56.9045C42.5793 63.7939 42.2282 72.3278 46.1087 78.9095C49.7104 85.0184 56.2596 88.6746 62.5058 92.0466" stroke="#3F3D56" stroke-miterlimit="10"/>
<path d="M14.5511 17.9151C16.0975 16.8536 17.9096 16.2431 19.7841 16.1521C21.6587 16.061 23.5215 16.493 25.1639 17.3996C30.1078 20.2234 31.6758 26.8165 30.6974 32.4178C29.7191 38.0191 26.7872 43.0543 24.6684 48.3321C21.8224 55.421 20.426 63.2876 22.0407 70.7525C23.6554 78.2174 28.6115 85.1799 35.7163 88.013C42.3107 90.6425 49.7316 89.5315 56.7385 88.3809" stroke="#3F3D56" stroke-miterlimit="10"/>
<path d="M65.4967 84.132C59.6702 84.132 54.9469 81.842 54.9469 79.0171C54.9469 76.1922 59.6702 73.9021 65.4967 73.9021C71.3232 73.9021 76.0465 76.1922 76.0465 79.0171C76.0465 81.842 71.3232 84.132 65.4967 84.132Z" fill="#57B894"/>
<path d="M66.8154 83.2546C60.9889 83.2546 56.2656 80.9646 56.2656 78.1396C56.2656 75.3147 60.9889 73.0247 66.8154 73.0247C72.6419 73.0247 77.3652 75.3147 77.3652 78.1396C77.3652 80.9646 72.6419 83.2546 66.8154 83.2546Z" stroke="#3F3D56" stroke-miterlimit="10"/>
<path d="M42.6388 79.7444C36.8123 79.7444 32.089 77.4543 32.089 74.6294C32.089 71.8045 36.8123 69.5144 42.6388 69.5144C48.4653 69.5144 53.1886 71.8045 53.1886 74.6294C53.1886 77.4543 48.4653 79.7444 42.6388 79.7444Z" fill="#57B894"/>
<path d="M43.9575 78.8667C38.131 78.8667 33.4077 76.5766 33.4077 73.7517C33.4077 70.9268 38.131 68.6367 43.9575 68.6367C49.784 68.6367 54.5073 70.9268 54.5073 73.7517C54.5073 76.5766 49.784 78.8667 43.9575 78.8667Z" stroke="#3F3D56" stroke-miterlimit="10"/>
<path d="M39.1222 99.0507C33.2957 99.0507 28.5724 96.7607 28.5724 93.9358C28.5724 91.1109 33.2957 88.8208 39.1222 88.8208C44.9487 88.8208 49.672 91.1109 49.672 93.9358C49.672 96.7607 44.9487 99.0507 39.1222 99.0507Z" fill="#57B894"/>
<path d="M40.441 98.1733C34.6145 98.1733 29.8912 95.8832 29.8912 93.0583C29.8912 90.2334 34.6145 87.9434 40.441 87.9434C46.2674 87.9434 50.9907 90.2334 50.9907 93.0583C50.9907 95.8832 46.2674 98.1733 40.441 98.1733Z" stroke="#3F3D56" stroke-miterlimit="10"/>
<path d="M41.3201 50.7845C35.4936 50.7845 30.7703 48.4945 30.7703 45.6695C30.7703 42.8446 35.4936 40.5546 41.3201 40.5546C47.1466 40.5546 51.8699 42.8446 51.8699 45.6695C51.8699 48.4945 47.1466 50.7845 41.3201 50.7845Z" fill="#57B894"/>
<path d="M42.6388 49.9069C36.8123 49.9069 32.089 47.6169 32.089 44.792C32.089 41.9671 36.8123 39.677 42.6388 39.677C48.4653 39.677 53.1886 41.9671 53.1886 44.792C53.1886 47.6169 48.4653 49.9069 42.6388 49.9069Z" stroke="#3F3D56" stroke-miterlimit="10"/>
<path d="M67.6946 47.7131C61.8681 47.7131 57.1448 45.423 57.1448 42.5981C57.1448 39.7732 61.8681 37.4832 67.6946 37.4832C73.5211 37.4832 78.2444 39.7732 78.2444 42.5981C78.2444 45.423 73.5211 47.7131 67.6946 47.7131Z" fill="#57B894"/>
<path d="M69.0133 46.8355C63.1868 46.8355 58.4635 44.5455 58.4635 41.7206C58.4635 38.8956 63.1868 36.6056 69.0133 36.6056C74.8398 36.6056 79.5631 38.8956 79.5631 41.7206C79.5631 44.5455 74.8398 46.8355 69.0133 46.8355Z" stroke="#3F3D56" stroke-miterlimit="10"/>
<path d="M55.826 36.7435C49.9995 36.7435 45.2762 34.4534 45.2762 31.6285C45.2762 28.8036 49.9995 26.5135 55.826 26.5135C61.6525 26.5135 66.3759 28.8036 66.3759 31.6285C66.3759 34.4534 61.6525 36.7435 55.826 36.7435Z" fill="#57B894"/>
<path d="M57.1448 35.8659C51.3183 35.8659 46.595 33.5759 46.595 30.751C46.595 27.926 51.3183 25.636 57.1448 25.636C62.9713 25.636 67.6946 27.926 67.6946 30.751C67.6946 33.5759 62.9713 35.8659 57.1448 35.8659Z" stroke="#3F3D56" stroke-miterlimit="10"/>
<path d="M29.8911 38.9373C24.0646 38.9373 19.3413 36.6473 19.3413 33.8224C19.3413 30.9974 24.0646 28.7074 29.8911 28.7074C35.7176 28.7074 40.4409 30.9974 40.4409 33.8224C40.4409 36.6473 35.7176 38.9373 29.8911 38.9373Z" fill="#57B894"/>
<path d="M31.2099 38.0598C25.3834 38.0598 20.66 35.7697 20.66 32.9448C20.66 30.1199 25.3834 27.8298 31.2099 27.8298C37.0363 27.8298 41.7596 30.1199 41.7596 32.9448C41.7596 35.7697 37.0363 38.0598 31.2099 38.0598Z" stroke="#3F3D56" stroke-miterlimit="10"/>
<path d="M10.5498 53.4172C4.72332 53.4172 3.05176e-05 51.1271 3.05176e-05 48.3022C3.05176e-05 45.4773 4.72332 43.1873 10.5498 43.1873C16.3763 43.1873 21.0996 45.4773 21.0996 48.3022C21.0996 51.1271 16.3763 53.4172 10.5498 53.4172Z" fill="#57B894"/>
<path d="M11.8685 52.5396C6.04205 52.5396 1.31876 50.2496 1.31876 47.4247C1.31876 44.5997 6.04205 42.3097 11.8685 42.3097C17.695 42.3097 22.4183 44.5997 22.4183 47.4247C22.4183 50.2496 17.695 52.5396 11.8685 52.5396Z" stroke="#3F3D56" stroke-miterlimit="10"/>
<path d="M78.6839 27.9677C72.8574 27.9677 68.1341 25.6777 68.1341 22.8528C68.1341 20.0278 72.8574 17.7378 78.6839 17.7378C84.5105 17.7378 89.2338 20.0278 89.2338 22.8528C89.2338 25.6777 84.5105 27.9677 78.6839 27.9677Z" fill="#57B894"/>
<path d="M80.0027 27.0902C74.1762 27.0902 69.4529 24.8001 69.4529 21.9752C69.4529 19.1503 74.1762 16.8602 80.0027 16.8602C85.8292 16.8602 90.5525 19.1503 90.5525 21.9752C90.5525 24.8001 85.8292 27.0902 80.0027 27.0902Z" stroke="#3F3D56" stroke-miterlimit="10"/>
<path d="M72.0903 11.2939C66.2638 11.2939 61.5405 9.00386 61.5405 6.17894C61.5405 3.35402 66.2638 1.06396 72.0903 1.06396C77.9168 1.06396 82.6401 3.35402 82.6401 6.17894C82.6401 9.00386 77.9168 11.2939 72.0903 11.2939Z" fill="#57B894"/>
<path d="M73.4091 10.4163C67.5826 10.4163 62.8593 8.12629 62.8593 5.30137C62.8593 2.47645 67.5826 0.186401 73.4091 0.186401C79.2356 0.186401 83.9589 2.47645 83.9589 5.30137C83.9589 8.12629 79.2356 10.4163 73.4091 10.4163Z" stroke="#3F3D56" stroke-miterlimit="10"/>
<path d="M10.9894 23.5799C5.16285 23.5799 0.439545 21.2899 0.439545 18.4649C0.439545 15.64 5.16285 13.35 10.9894 13.35C16.8159 13.35 21.5392 15.64 21.5392 18.4649C21.5392 21.2899 16.8159 23.5799 10.9894 23.5799Z" fill="#57B894"/>
<path d="M12.3081 22.7024C6.48162 22.7024 1.7583 20.4123 1.7583 17.5874C1.7583 14.7625 6.48162 12.4724 12.3081 12.4724C18.1346 12.4724 22.8579 14.7625 22.8579 17.5874C22.8579 20.4123 18.1346 22.7024 12.3081 22.7024Z" stroke="#3F3D56" stroke-miterlimit="10"/>
<path d="M108.135 63.948C102.309 63.948 97.5857 61.6579 97.5857 58.833C97.5857 56.0081 102.309 53.718 108.135 53.718C113.962 53.718 118.685 56.0081 118.685 58.833C118.685 61.6579 113.962 63.948 108.135 63.948Z" fill="#57B894"/>
<path d="M109.454 63.0705C103.628 63.0705 98.9044 60.7805 98.9044 57.9555C98.9044 55.1306 103.628 52.8406 109.454 52.8406C115.281 52.8406 120.004 55.1306 120.004 57.9555C120.004 60.7805 115.281 63.0705 109.454 63.0705Z" stroke="#3F3D56" stroke-miterlimit="10"/>
<path d="M71.6508 61.3154C65.8243 61.3154 61.101 59.0253 61.101 56.2004C61.101 53.3755 65.8243 51.0854 71.6508 51.0854C77.4772 51.0854 82.2006 53.3755 82.2006 56.2004C82.2006 59.0253 77.4772 61.3154 71.6508 61.3154Z" fill="#57B894"/>
<path d="M72.9695 60.4377C67.143 60.4377 62.4197 58.1476 62.4197 55.3227C62.4197 52.4978 67.143 50.2078 72.9695 50.2078C78.796 50.2078 83.5193 52.4978 83.5193 55.3227C83.5193 58.1476 78.796 60.4377 72.9695 60.4377Z" stroke="#3F3D56" stroke-miterlimit="10"/>
<path d="M23.737 65.2644C17.9106 65.2644 13.1873 62.9743 13.1873 60.1494C13.1873 57.3245 17.9106 55.0344 23.737 55.0344C29.5635 55.0344 34.2869 57.3245 34.2869 60.1494C34.2869 62.9743 29.5635 65.2644 23.737 65.2644Z" fill="#57B894"/>
<path d="M25.0558 64.3869C19.2293 64.3869 14.506 62.0969 14.506 59.272C14.506 56.447 19.2293 54.157 25.0558 54.157C30.8823 54.157 35.6056 56.447 35.6056 59.272C35.6056 62.0969 30.8823 64.3869 25.0558 64.3869Z" stroke="#3F3D56" stroke-miterlimit="10"/>
<path d="M49.2324 67.0195C43.406 67.0195 38.6826 64.7295 38.6826 61.9045C38.6826 59.0796 43.406 56.7896 49.2324 56.7896C55.0589 56.7896 59.7822 59.0796 59.7822 61.9045C59.7822 64.7295 55.0589 67.0195 49.2324 67.0195Z" fill="#57B894"/>
<path d="M50.5512 66.1421C44.7247 66.1421 40.0014 63.852 40.0014 61.0271C40.0014 58.2022 44.7247 55.9121 50.5512 55.9121C56.3776 55.9121 61.101 58.2022 61.101 61.0271C61.101 63.852 56.3776 66.1421 50.5512 66.1421Z" stroke="#3F3D56" stroke-miterlimit="10"/>
<path d="M47.4741 23.1412C41.6476 23.1412 36.9243 20.8511 36.9243 18.0262C36.9243 15.2013 41.6476 12.9113 47.4741 12.9113C53.3006 12.9113 58.0239 15.2013 58.0239 18.0262C58.0239 20.8511 53.3006 23.1412 47.4741 23.1412Z" fill="#57B894"/>
<path d="M48.7929 22.2635C42.9664 22.2635 38.243 19.9735 38.243 17.1485C38.243 14.3236 42.9664 12.0336 48.7929 12.0336C54.6194 12.0336 59.3427 14.3236 59.3427 17.1485C59.3427 19.9735 54.6194 22.2635 48.7929 22.2635Z" stroke="#3F3D56" stroke-miterlimit="10"/>
<path d="M92.7504 50.3458C86.9239 50.3458 82.2006 48.0557 82.2006 45.2308C82.2006 42.4059 86.9239 40.1158 92.7504 40.1158C98.5769 40.1158 103.3 42.4059 103.3 45.2308C103.3 48.0557 98.5769 50.3458 92.7504 50.3458Z" fill="#57B894"/>
<path d="M94.0691 49.4682C88.2426 49.4682 83.5193 47.1782 83.5193 44.3533C83.5193 41.5283 88.2426 39.2383 94.0691 39.2383C99.8956 39.2383 104.619 41.5283 104.619 44.3533C104.619 47.1782 99.8956 49.4682 94.0691 49.4682Z" stroke="#3F3D56" stroke-miterlimit="10"/>
<path d="M86.5963 70.091C80.7698 70.091 76.0465 67.801 76.0465 64.9761C76.0465 62.1511 80.7698 59.8611 86.5963 59.8611C92.4228 59.8611 97.1461 62.1511 97.1461 64.9761C97.1461 67.801 92.4228 70.091 86.5963 70.091Z" fill="#57B894"/>
<path d="M87.9151 69.2136C82.0886 69.2136 77.3652 66.9235 77.3652 64.0986C77.3652 61.2737 82.0886 58.9836 87.9151 58.9836C93.7415 58.9836 98.4648 61.2737 98.4648 64.0986C98.4648 66.9235 93.7415 69.2136 87.9151 69.2136Z" stroke="#3F3D56" stroke-miterlimit="10"/>
<g opacity="0.3">
<path opacity="0.3" d="M86.3508 99.9013C84.8616 97.2416 84.5898 94.5636 85.7438 93.9198C86.8977 93.2761 89.0403 94.9103 90.5295 97.5701C92.0187 100.23 92.2905 102.908 91.1366 103.552C89.9827 104.195 87.84 102.561 86.3508 99.9013Z" fill="#57B894"/>
<path opacity="0.3" d="M87.0463 100.303C85.5571 97.6434 85.2853 94.9654 86.4393 94.3217C87.5932 93.6779 89.7359 95.3122 91.2251 97.9719C92.7143 100.632 92.9861 103.31 91.8321 103.953C90.6782 104.597 88.5355 102.963 87.0463 100.303Z" stroke="#3F3D56" stroke-miterlimit="10"/>
</g>
<g opacity="0.3">
<path opacity="0.3" d="M31.3605 112.652C30.479 111.668 31.6082 109.224 33.8827 107.192C36.1573 105.16 38.7158 104.31 39.5974 105.293C40.479 106.276 39.3497 108.721 37.0752 110.753C34.8006 112.785 32.2421 113.635 31.3605 112.652Z" fill="#57B894"/>
<path opacity="0.3" d="M31.6015 111.887C30.7199 110.903 31.8492 108.459 34.1237 106.427C36.3982 104.395 38.9568 103.545 39.8383 104.528C40.7199 105.511 39.5907 107.956 37.3162 109.988C35.0416 112.02 32.4831 112.87 31.6015 111.887Z" stroke="#3F3D56" stroke-miterlimit="10"/>
</g>
<g opacity="0.3">
<path opacity="0.3" d="M80.593 85.0084C79.7114 84.0251 80.8406 81.5808 83.1151 79.5488C85.3897 77.5168 87.9482 76.6666 88.8298 77.6498C89.7114 78.6331 88.5821 81.0774 86.3076 83.1094C84.0331 85.1414 81.4745 85.9916 80.593 85.0084Z" fill="#57B894"/>
<path opacity="0.3" d="M80.8339 84.2432C79.9523 83.26 81.0816 80.8156 83.3561 78.7836C85.6306 76.7516 88.1892 75.9015 89.0708 76.8847C89.9523 77.868 88.8231 80.3123 86.5486 82.3443C84.274 84.3763 81.7155 85.2265 80.8339 84.2432Z" stroke="#3F3D56" stroke-miterlimit="10"/>
</g>
</g>
<defs>
<clipPath id="clip0_406_45">
<rect width="331" height="244" fill="white" transform="matrix(-1 0 0 1 331 0)"/>
</clipPath>
</defs>
</svg>
